<svg xmlns="http://www.w3.org/2000/svg" xmlns:xlink="http://www.w3.org/1999/xlink" contentStyleType="text/css" data-diagram-type="ACTIVITY" height="578px" preserveAspectRatio="none" style="width:351px;height:578px;background:#FFFFFF;" version="1.1" viewBox="0 0 351 578" width="351px" zoomAndPan="magnify"><defs/><g><ellipse cx="175.5107" cy="20" fill="#222222" rx="10" ry="10" style="stroke:#222222;stroke-width:1;"/><rect fill="#F1F1F1" height="33.9688" rx="12.5" ry="12.5" style="stroke:#181818;stroke-width:0.5;" width="79.3086" x="135.8564" y="50"/><text fill="#000000" font-family="sans-serif" font-size="12" lengthAdjust="spacing" textLength="59.3086" x="145.8564" y="71.1387">Open App</text><rect fill="#F1F1F1" height="33.9688" rx="12.5" ry="12.5" style="stroke:#181818;stroke-width:0.5;" width="170.6797" x="90.1709" y="103.9688"/><text fill="#000000" font-family="sans-serif" font-size="12" lengthAdjust="spacing" textLength="150.6797" x="100.1709" y="125.1074">Select or Drop Media File</text><rect fill="#F1F1F1" height="33.9688" rx="12.5" ry="12.5" style="stroke:#181818;stroke-width:0.5;" width="134.8496" x="108.0859" y="157.9375"/><text fill="#000000" font-family="sans-serif" font-size="12" lengthAdjust="spacing" textLength="114.8496" x="118.0859" y="179.0762">Save to IndexedDB</text><rect fill="#F1F1F1" height="33.9688" rx="12.5" ry="12.5" style="stroke:#181818;stroke-width:0.5;" width="134.0059" x="108.5078" y="211.9063"/><text fill="#000000" font-family="sans-serif" font-size="12" lengthAdjust="spacing" textLength="114.0059" x="118.5078" y="233.0449">Generate Blob URL</text><rect fill="#F1F1F1" height="33.9688" rx="12.5" ry="12.5" style="stroke:#181818;stroke-width:0.5;" width="105.7695" x="122.626" y="265.875"/><text fill="#000000" font-family="sans-serif" font-size="12" lengthAdjust="spacing" textLength="85.7695" x="132.626" y="287.0137">Add to Playlist</text><rect fill="#F1F1F1" height="33.9688" rx="12.5" ry="12.5" style="stroke:#181818;stroke-width:0.5;" width="126.4883" x="112.2666" y="319.8438"/><text fill="#000000" font-family="sans-serif" font-size="12" lengthAdjust="spacing" textLength="106.4883" x="122.2666" y="340.9824">Select File to Play</text><polygon fill="#F1F1F1" points="157.061,373.8125,193.9604,373.8125,205.9604,385.8125,193.9604,397.8125,157.061,397.8125,145.061,385.8125,157.061,373.8125" style="stroke:#181818;stroke-width:0.5;"/><text fill="#000000" font-family="sans-serif" font-size="11" lengthAdjust="spacing" textLength="36.8994" x="157.061" y="389.6206">Video?</text><text fill="#000000" font-family="sans-serif" font-size="11" lengthAdjust="spacing" textLength="19.0083" x="126.0527" y="383.2183">yes</text><rect fill="#F1F1F1" height="33.9688" rx="12.5" ry="12.5" style="stroke:#181818;stroke-width:0.5;" width="154.4551" x="11" y="407.8125"/><text fill="#000000" font-family="sans-serif" font-size="12" lengthAdjust="spacing" textLength="134.4551" x="21" y="428.9512">Render Video Element</text><rect fill="#F1F1F1" height="33.9688" rx="12.5" ry="12.5" style="stroke:#181818;stroke-width:0.5;" width="154.6777" x="185.4551" y="407.8125"/><text fill="#000000" font-family="sans-serif" font-size="12" lengthAdjust="spacing" textLength="134.6777" x="195.4551" y="428.9512">Render Audio Element</text><polygon fill="#F1F1F1" points="175.5107,447.7813,187.5107,459.7813,175.5107,471.7813,163.5107,459.7813,175.5107,447.7813" style="stroke:#181818;stroke-width:0.5;"/><rect fill="#F1F1F1" height="33.9688" rx="12.5" ry="12.5" style="stroke:#181818;stroke-width:0.5;" width="180.1016" x="85.46" y="491.7813"/><text fill="#000000" font-family="sans-serif" font-size="12" lengthAdjust="spacing" textLength="160.1016" x="95.46" y="512.9199">Adjust Volume / Fullscreen</text><ellipse cx="175.5107" cy="556.75" fill="transparent" rx="11" ry="11" style="stroke:#222222;stroke-width:1;"/><ellipse cx="175.5107" cy="556.75" fill="#222222" rx="6" ry="6" style="stroke:#222222;stroke-width:1;"/><line style="stroke:#181818;stroke-width:1;" x1="175.5107" x2="175.5107" y1="30" y2="50"/><polygon fill="#181818" points="171.5107,40,175.5107,50,179.5107,40,175.5107,44" style="stroke:#181818;stroke-width:1;"/><line style="stroke:#181818;stroke-width:1;" x1="175.5107" x2="175.5107" y1="83.9688" y2="103.9688"/><polygon fill="#181818" points="171.5107,93.9688,175.5107,103.9688,179.5107,93.9688,175.5107,97.9688" style="stroke:#181818;stroke-width:1;"/><line style="stroke:#181818;stroke-width:1;" x1="175.5107" x2="175.5107" y1="137.9375" y2="157.9375"/><polygon fill="#181818" points="171.5107,147.9375,175.5107,157.9375,179.5107,147.9375,175.5107,151.9375" style="stroke:#181818;stroke-width:1;"/><line style="stroke:#181818;stroke-width:1;" x1="175.5107" x2="175.5107" y1="191.9063" y2="211.9063"/><polygon fill="#181818" points="171.5107,201.9063,175.5107,211.9063,179.5107,201.9063,175.5107,205.9063" style="stroke:#181818;stroke-width:1;"/><line style="stroke:#181818;stroke-width:1;" x1="175.5107" x2="175.5107" y1="245.875" y2="265.875"/><polygon fill="#181818" points="171.5107,255.875,175.5107,265.875,179.5107,255.875,175.5107,259.875" style="stroke:#181818;stroke-width:1;"/><line style="stroke:#181818;stroke-width:1;" x1="175.5107" x2="175.5107" y1="299.8438" y2="319.8438"/><polygon fill="#181818" points="171.5107,309.8438,175.5107,319.8438,179.5107,309.8438,175.5107,313.8438" style="stroke:#181818;stroke-width:1;"/><line style="stroke:#181818;stroke-width:1;" x1="145.061" x2="88.2275" y1="385.8125" y2="385.8125"/><line style="stroke:#181818;stroke-width:1;" x1="88.2275" x2="88.2275" y1="385.8125" y2="407.8125"/><polygon fill="#181818" points="84.2275,397.8125,88.2275,407.8125,92.2275,397.8125,88.2275,401.8125" style="stroke:#181818;stroke-width:1;"/><line style="stroke:#181818;stroke-width:1;" x1="205.9604" x2="262.7939" y1="385.8125" y2="385.8125"/><line style="stroke:#181818;stroke-width:1;" x1="262.7939" x2="262.7939" y1="385.8125" y2="407.8125"/><polygon fill="#181818" points="258.7939,397.8125,262.7939,407.8125,266.7939,397.8125,262.7939,401.8125" style="stroke:#181818;stroke-width:1;"/><line style="stroke:#181818;stroke-width:1;" x1="88.2275" x2="88.2275" y1="441.7813" y2="459.7813"/><line style="stroke:#181818;stroke-width:1;" x1="88.2275" x2="163.5107" y1="459.7813" y2="459.7813"/><polygon fill="#181818" points="153.5107,455.7813,163.5107,459.7813,153.5107,463.7813,157.5107,459.7813" style="stroke:#181818;stroke-width:1;"/><line style="stroke:#181818;stroke-width:1;" x1="262.7939" x2="262.7939" y1="441.7813" y2="459.7813"/><line style="stroke:#181818;stroke-width:1;" x1="262.7939" x2="187.5107" y1="459.7813" y2="459.7813"/><polygon fill="#181818" points="197.5107,455.7813,187.5107,459.7813,197.5107,463.7813,193.5107,459.7813" style="stroke:#181818;stroke-width:1;"/><line style="stroke:#181818;stroke-width:1;" x1="175.5107" x2="175.5107" y1="353.8125" y2="373.8125"/><polygon fill="#181818" points="171.5107,363.8125,175.5107,373.8125,179.5107,363.8125,175.5107,367.8125" style="stroke:#181818;stroke-width:1;"/><line style="stroke:#181818;stroke-width:1;" x1="175.5107" x2="175.5107" y1="471.7813" y2="491.7813"/><polygon fill="#181818" points="171.5107,481.7813,175.5107,491.7813,179.5107,481.7813,175.5107,485.7813" style="stroke:#181818;stroke-width:1;"/><line style="stroke:#181818;stroke-width:1;" x1="175.5107" x2="175.5107" y1="525.75" y2="545.75"/><polygon fill="#181818" points="171.5107,535.75,175.5107,545.75,179.5107,535.75,175.5107,539.75" style="stroke:#181818;stroke-width:1;"/><!--SRC=[JOxBYW8n54Jt-OfQwifzzq9QV20eCpZeFfeI8zSa9BT5_txIWkYsJd6gYjgiflb93EXIQatpH-594JFcEIPiwRp5qWi7Pk-4Hgo3uuDkFglPYe7PAZ6JUCH-jwbPvznG-nNx55_qOnqyRz8QVyReu1tZT0ozr0UZ9ylO0CsETI7Z1R4GtXYgXLBuHRlU-MyQd3yFszU-A0vH-XinmR8NAQTCXjOKZUaV]--></g></svg>