<svg xmlns="http://www.w3.org/2000/svg" xmlns:xlink="http://www.w3.org/1999/xlink" contentStyleType="text/css" data-diagram-type="CLASS" height="349px" preserveAspectRatio="none" style="width:364px;height:349px;background:#FFFFFF;" version="1.1" viewBox="0 0 364 349" width="364px" zoomAndPan="magnify"><defs/><g><!--class MusicPlayer--><g id="elem_MusicPlayer"><rect codeLine="1" fill="#F1F1F1" height="145.7813" id="MusicPlayer" rx="2.5" ry="2.5" style="stroke:#181818;stroke-width:0.5;" width="157.8926" x="105.5" y="7"/><ellipse cx="139.6224" cy="23" fill="#ADD1B2" rx="11" ry="11" style="stroke:#181818;stroke-width:1;"/><path d="M142.5911,28.6406 Q142.013,28.9375 141.3724,29.0781 Q140.7317,29.2344 140.0286,29.2344 Q137.5286,29.2344 136.2005,27.5938 Q134.888,25.9375 134.888,22.8125 Q134.888,19.6875 136.2005,18.0313 Q137.5286,16.375 140.0286,16.375 Q140.7317,16.375 141.3724,16.5313 Q142.0286,16.6875 142.5911,16.9844 L142.5911,19.7031 Q141.9661,19.125 141.3724,18.8594 Q140.7786,18.5781 140.1536,18.5781 Q138.8099,18.5781 138.1224,19.6563 Q137.4349,20.7188 137.4349,22.8125 Q137.4349,24.9063 138.1224,25.9844 Q138.8099,27.0469 140.1536,27.0469 Q140.7786,27.0469 141.3724,26.7813 Q141.9661,26.5 142.5911,25.9219 L142.5911,28.6406 Z " fill="#000000"/><text fill="#000000" font-family="sans-serif" font-size="14" lengthAdjust="spacing" textLength="83.3984" x="157.8718" y="27.8467">MusicPlayer</text><line style="stroke:#181818;stroke-width:0.5;" x1="106.5" x2="262.3926" y1="39" y2="39"/><rect fill="transparent" height="6" style="stroke:#C82930;stroke-width:1;" width="6" x="113.5" y="49.6484"/><text fill="#000000" font-family="sans-serif" font-size="14" lengthAdjust="spacing" textLength="50.2031" x="125.5" y="55.9951">playlist</text><rect fill="transparent" height="6" style="stroke:#C82930;stroke-width:1;" width="6" x="113.5" y="65.9453"/><text fill="#000000" font-family="sans-serif" font-size="14" lengthAdjust="spacing" textLength="131.8926" x="125.5" y="72.292">currentMediaIndex</text><rect fill="transparent" height="6" style="stroke:#C82930;stroke-width:1;" width="6" x="113.5" y="82.2422"/><text fill="#000000" font-family="sans-serif" font-size="14" lengthAdjust="spacing" textLength="56.5605" x="125.5" y="88.5889">bgIndex</text><rect fill="transparent" height="6" style="stroke:#C82930;stroke-width:1;" width="6" x="113.5" y="98.5391"/><text fill="#000000" font-family="sans-serif" font-size="14" lengthAdjust="spacing" textLength="93.1123" x="125.5" y="104.8857">bgColorIndex</text><line style="stroke:#181818;stroke-width:0.5;" x1="106.5" x2="262.3926" y1="112.1875" y2="112.1875"/><ellipse cx="116.5" cy="125.8359" fill="#84BE84" rx="3" ry="3" style="stroke:#038048;stroke-width:1;"/><text fill="#000000" font-family="sans-serif" font-size="14" lengthAdjust="spacing" textLength="90.3779" x="125.5" y="129.1826">handleFiles()</text><ellipse cx="116.5" cy="142.1328" fill="#84BE84" rx="3" ry="3" style="stroke:#038048;stroke-width:1;"/><text fill="#000000" font-family="sans-serif" font-size="14" lengthAdjust="spacing" textLength="106.4424" x="125.5" y="145.4795">removeMedia()</text></g><!--class AddMedia--><g id="elem_AddMedia"><rect codeLine="10" fill="#F1F1F1" height="80.5938" id="AddMedia" rx="2.5" ry="2.5" style="stroke:#181818;stroke-width:0.5;" width="162.6846" x="7" y="237"/><ellipse cx="49.5788" cy="253" fill="#ADD1B2" rx="11" ry="11" style="stroke:#181818;stroke-width:1;"/><path d="M52.5475,258.6406 Q51.9694,258.9375 51.3288,259.0781 Q50.6881,259.2344 49.985,259.2344 Q47.485,259.2344 46.1569,257.5938 Q44.8444,255.9375 44.8444,252.8125 Q44.8444,249.6875 46.1569,248.0313 Q47.485,246.375 49.985,246.375 Q50.6881,246.375 51.3288,246.5313 Q51.985,246.6875 52.5475,246.9844 L52.5475,249.7031 Q51.9225,249.125 51.3288,248.8594 Q50.735,248.5781 50.11,248.5781 Q48.7663,248.5781 48.0788,249.6563 Q47.3913,250.7188 47.3913,252.8125 Q47.3913,254.9063 48.0788,255.9844 Q48.7663,257.0469 50.11,257.0469 Q50.735,257.0469 51.3288,256.7813 Q51.9225,256.5 52.5475,255.9219 L52.5475,258.6406 Z " fill="#000000"/><text fill="#000000" font-family="sans-serif" font-size="14" lengthAdjust="spacing" textLength="69.3984" x="69.7074" y="257.8467">AddMedia</text><line style="stroke:#181818;stroke-width:0.5;" x1="8" x2="168.6846" y1="269" y2="269"/><line style="stroke:#181818;stroke-width:0.5;" x1="8" x2="168.6846" y1="277" y2="277"/><ellipse cx="18" cy="290.6484" fill="#84BE84" rx="3" ry="3" style="stroke:#038048;stroke-width:1;"/><text fill="#000000" font-family="sans-serif" font-size="14" lengthAdjust="spacing" textLength="92.627" x="27" y="293.9951">handleDrop()</text><ellipse cx="18" cy="306.9453" fill="#84BE84" rx="3" ry="3" style="stroke:#038048;stroke-width:1;"/><text fill="#000000" font-family="sans-serif" font-size="14" lengthAdjust="spacing" textLength="136.6846" x="27" y="310.292">handleFileChange()</text></g><!--class MediaPlayer--><g id="elem_MediaPlayer"><rect codeLine="15" fill="#F1F1F1" height="129.4844" id="MediaPlayer" rx="2.5" ry="2.5" style="stroke:#181818;stroke-width:0.5;" width="152.8066" x="205" y="213"/><ellipse cx="235.837" cy="229" fill="#ADD1B2" rx="11" ry="11" style="stroke:#181818;stroke-width:1;"/><path d="M238.8058,234.6406 Q238.2276,234.9375 237.587,235.0781 Q236.9464,235.2344 236.2433,235.2344 Q233.7433,235.2344 232.4151,233.5938 Q231.1026,231.9375 231.1026,228.8125 Q231.1026,225.6875 232.4151,224.0313 Q233.7433,222.375 236.2433,222.375 Q236.9464,222.375 237.587,222.5313 Q238.2433,222.6875 238.8058,222.9844 L238.8058,225.7031 Q238.1808,225.125 237.587,224.8594 Q236.9933,224.5781 236.3683,224.5781 Q235.0245,224.5781 234.337,225.6563 Q233.6495,226.7188 233.6495,228.8125 Q233.6495,230.9063 234.337,231.9844 Q235.0245,233.0469 236.3683,233.0469 Q236.9933,233.0469 237.587,232.7813 Q238.1808,232.5 238.8058,231.9219 L238.8058,234.6406 Z " fill="#000000"/><text fill="#000000" font-family="sans-serif" font-size="14" lengthAdjust="spacing" textLength="85.6133" x="253.3563" y="233.8467">MediaPlayer</text><line style="stroke:#181818;stroke-width:0.5;" x1="206" x2="356.8066" y1="245" y2="245"/><line style="stroke:#181818;stroke-width:0.5;" x1="206" x2="356.8066" y1="253" y2="253"/><ellipse cx="216" cy="266.6484" fill="#84BE84" rx="3" ry="3" style="stroke:#038048;stroke-width:1;"/><text fill="#000000" font-family="sans-serif" font-size="14" lengthAdjust="spacing" textLength="40.5645" x="225" y="269.9951">play()</text><ellipse cx="216" cy="282.9453" fill="#84BE84" rx="3" ry="3" style="stroke:#038048;stroke-width:1;"/><text fill="#000000" font-family="sans-serif" font-size="14" lengthAdjust="spacing" textLength="53.1699" x="225" y="286.292">pause()</text><ellipse cx="216" cy="299.2422" fill="#84BE84" rx="3" ry="3" style="stroke:#038048;stroke-width:1;"/><text fill="#000000" font-family="sans-serif" font-size="14" lengthAdjust="spacing" textLength="71.9619" x="225" y="302.5889">skipNext()</text><ellipse cx="216" cy="315.5391" fill="#84BE84" rx="3" ry="3" style="stroke:#038048;stroke-width:1;"/><text fill="#000000" font-family="sans-serif" font-size="14" lengthAdjust="spacing" textLength="98.8203" x="225" y="318.8857">skipPrevious()</text><ellipse cx="216" cy="331.8359" fill="#84BE84" rx="3" ry="3" style="stroke:#038048;stroke-width:1;"/><text fill="#000000" font-family="sans-serif" font-size="14" lengthAdjust="spacing" textLength="126.8066" x="225" y="335.1826">toggleFullscreen()</text></g><!--link MusicPlayer to AddMedia--><g id="link_MusicPlayer_AddMedia"><path codeLine="23" d="M149.03,153.24 C135.14,181.52 122.3955,207.4847 110.6055,231.4847 " fill="transparent" id="MusicPlayer-to-AddMedia" style="stroke:#181818;stroke-width:1;"/><polygon fill="#181818" points="107.96,236.87,115.5185,230.5558,110.1646,232.3823,108.3381,227.0284,107.96,236.87" style="stroke:#181818;stroke-width:1;"/></g><!--link MusicPlayer to MediaPlayer--><g id="link_MusicPlayer_MediaPlayer"><path codeLine="24" d="M220.34,153.24 C230.06,172.82 237.8325,188.4956 247.2925,207.5556 " fill="transparent" id="MusicPlayer-to-MediaPlayer" style="stroke:#181818;stroke-width:1;"/><polygon fill="#181818" points="249.96,212.93,249.5417,203.09,247.7371,208.4513,242.3758,206.6467,249.96,212.93" style="stroke:#181818;stroke-width:1;"/></g><!--SRC=[PP312i8m44Jl_OeSbT9V4AGYUAZq5sAonE2QX4rIAkA_6zPM0zvc9ipE8mfbZ6B8qQeHvGD8F1iXEX6AGHiJ6vM9mAK1j9Kdfs7cz69gtNlqj0Qjk4gd4OuM8Mwsd13S_GHyeoIlfb4ylTUQCzvTUmVoOQdz3lL56gYxNAomMyPUYa7c28kEDnlECAVAZWIJzNcbIzwOCfCHeo80zvcf_wNhTb_OluUAv0q0]--></g></svg>