<svg xmlns="http://www.w3.org/2000/svg" xmlns:xlink="http://www.w3.org/1999/xlink" contentStyleType="text/css" data-diagram-type="CLASS" height="97px" preserveAspectRatio="none" style="width:814px;height:97px;background:#FFFFFF;" version="1.1" viewBox="0 0 814 97" width="814px" zoomAndPan="magnify"><defs/><g><g id="elem_User"><rect fill="#F1F1F1" height="36.2969" rx="2.5" ry="2.5" style="stroke:#181818;stroke-width:0.5;" width="45.9102" x="7" y="54.9"/><text fill="#000000" font-family="sans-serif" font-size="14" lengthAdjust="spacing" textLength="31.9102" x="14" y="69.8951">User</text><line style="stroke:#181818;stroke-width:0.5;" x1="8" x2="51.9102" y1="75.1969" y2="75.1969"/></g><g id="elem_AddMedia"><rect fill="#F1F1F1" height="36.2969" rx="2.5" ry="2.5" style="stroke:#181818;stroke-width:0.5;" width="83.3984" x="161.5" y="54.9"/><text fill="#000000" font-family="sans-serif" font-size="14" lengthAdjust="spacing" textLength="69.3984" x="168.5" y="69.8951">AddMedia</text><line style="stroke:#181818;stroke-width:0.5;" x1="162.5" x2="243.8984" y1="75.1969" y2="75.1969"/></g><g id="elem_IndexedDB"><rect fill="#F1F1F1" height="36.2969" rx="2.5" ry="2.5" style="stroke:#181818;stroke-width:0.5;" width="90.6719" x="717.5" y="54.9"/><text fill="#000000" font-family="sans-serif" font-size="14" lengthAdjust="spacing" textLength="76.6719" x="724.5" y="69.8951">IndexedDB</text><line style="stroke:#181818;stroke-width:0.5;" x1="718.5" x2="807.1719" y1="75.1969" y2="75.1969"/></g><g id="elem_MusicPlayer"><rect fill="#F1F1F1" height="36.2969" rx="2.5" ry="2.5" style="stroke:#181818;stroke-width:0.5;" width="97.3984" x="378.5" y="54.9"/><text fill="#000000" font-family="sans-serif" font-size="14" lengthAdjust="spacing" textLength="83.3984" x="385.5" y="69.8951">MusicPlayer</text><line style="stroke:#181818;stroke-width:0.5;" x1="379.5" x2="474.8984" y1="75.1969" y2="75.1969"/></g><g id="elem_MediaPlayer"><rect fill="#F1F1F1" height="36.2969" rx="2.5" ry="2.5" style="stroke:#181818;stroke-width:0.5;" width="99.6133" x="582" y="54.9"/><text fill="#000000" font-family="sans-serif" font-size="14" lengthAdjust="spacing" textLength="85.6133" x="589" y="69.8951">MediaPlayer</text><line style="stroke:#181818;stroke-width:0.5;" x1="583" x2="680.6133" y1="75.1969" y2="75.1969"/></g><!--link User to AddMedia--><g id="link_User_AddMedia"><path codeLine="7" d="M53.33,72.9 C80.91,72.9 121.32,72.9 155.16,72.9 " fill="transparent" id="User-to-AddMedia" style="stroke:#181818;stroke-width:1;"/><polygon fill="#181818" points="161.16,72.9,152.16,68.9,156.16,72.9,152.16,76.9,161.16,72.9" style="stroke:#181818;stroke-width:1;"/><text fill="#000000" font-family="sans-serif" font-size="13" lengthAdjust="spacing" textLength="72.3823" x="71.25" y="65.9669">Upload File</text></g><!--link AddMedia to IndexedDB--><g id="link_AddMedia_IndexedDB"><path codeLine="8" d="M244.56,60.39 C292.9,46.54 375.38,25.09 448,16.9 C544.59,6 650.6235,34.2858 711.6635,54.4758 " fill="transparent" id="AddMedia-to-IndexedDB" style="stroke:#181818;stroke-width:1;"/><polygon fill="#181818" points="717.36,56.36,710.0714,49.736,712.6129,54.7898,707.5592,57.3313,717.36,56.36" style="stroke:#181818;stroke-width:1;"/><text fill="#000000" font-family="sans-serif" font-size="13" lengthAdjust="spacing" textLength="64.7778" x="449" y="20.9669">Save Blob</text></g><!--link AddMedia to MusicPlayer--><g id="link_AddMedia_MusicPlayer"><path codeLine="9" d="M244.61,72.9 C282.44,72.9 332.29,72.9 372.21,72.9 " fill="transparent" id="AddMedia-to-MusicPlayer" style="stroke:#181818;stroke-width:1;"/><polygon fill="#181818" points="378.21,72.9,369.21,68.9,373.21,72.9,369.21,76.9,378.21,72.9" style="stroke:#181818;stroke-width:1;"/><text fill="#000000" font-family="sans-serif" font-size="13" lengthAdjust="spacing" textLength="97.4175" x="263" y="65.9669">Update Playlist</text></g><!--link MusicPlayer to MediaPlayer--><g id="link_MusicPlayer_MediaPlayer"><path codeLine="10" d="M475.58,72.9 C507.67,72.9 543.61,72.9 575.98,72.9 " fill="transparent" id="MusicPlayer-to-MediaPlayer" style="stroke:#181818;stroke-width:1;"/><polygon fill="#181818" points="581.98,72.9,572.98,68.9,576.98,72.9,572.98,76.9,581.98,72.9" style="stroke:#181818;stroke-width:1;"/><text fill="#000000" font-family="sans-serif" font-size="13" lengthAdjust="spacing" textLength="70.2876" x="493.75" y="65.9669">Play Media</text></g><!--SRC=[oq_AIaqkKGWjJYtYoeUm7LDIV5DJCXDXVC-ybDIAr1GN9vY0RsbnPd90Jc8bGWzO0rI82sIOWguTt205AuNGWfpyn1G5jyoSL2wuC509t6oWck34ibG5fvpy91GLI9Q1pKb9B4bL0F5pCejBk91bGOeHpW0g1Z4WGW00]--></g></svg>