<svg xmlns="http://www.w3.org/2000/svg" xmlns:xlink="http://www.w3.org/1999/xlink" contentStyleType="text/css" data-diagram-type="DESCRIPTION" height="322px" preserveAspectRatio="none" style="width:364px;height:322px;background:#FFFFFF;" version="1.1" viewBox="0 0 364 322" width="364px" zoomAndPan="magnify"><defs/><g><!--cluster Zen Player--><g id="cluster_Zen Player"><path d="M8.5,6 L94.0195,6 A3.75,3.75 0 0 1 96.5195,8.5 L103.5195,28.2969 L354.5,28.2969 A2.5,2.5 0 0 1 357,30.7969 L357,312.5 A2.5,2.5 0 0 1 354.5,315 L8.5,315 A2.5,2.5 0 0 1 6,312.5 L6,8.5 A2.5,2.5 0 0 1 8.5,6 " fill="transparent" style="stroke:#000000;stroke-width:1.5;"/><line style="stroke:#000000;stroke-width:1.5;" x1="6" x2="103.5195" y1="28.2969" y2="28.2969"/><text fill="#000000" font-family="sans-serif" font-size="14" font-weight="bold" lengthAdjust="spacing" textLength="84.5195" x="10" y="20.9951">Zen Player</text></g><!--entity MusicPlayer.jsx--><g id="elem_MusicPlayer.jsx"><rect fill="#F1F1F1" height="46.2969" rx="2.5" ry="2.5" style="stroke:#181818;stroke-width:0.5;" width="147.3174" x="107.5" y="41"/><rect fill="#F1F1F1" height="10" style="stroke:#181818;stroke-width:0.5;" width="15" x="234.8174" y="46"/><rect fill="#F1F1F1" height="2" style="stroke:#181818;stroke-width:0.5;" width="4" x="232.8174" y="48"/><rect fill="#F1F1F1" height="2" style="stroke:#181818;stroke-width:0.5;" width="4" x="232.8174" y="52"/><text fill="#000000" font-family="sans-serif" font-size="14" lengthAdjust="spacing" textLength="107.3174" x="122.5" y="73.9951">MusicPlayer.jsx</text></g><!--entity AddMedia.jsx--><g id="elem_AddMedia.jsx"><rect fill="#F1F1F1" height="46.2969" rx="2.5" ry="2.5" style="stroke:#181818;stroke-width:0.5;" width="133.3174" x="22.5" y="147"/><rect fill="#F1F1F1" height="10" style="stroke:#181818;stroke-width:0.5;" width="15" x="135.8174" y="152"/><rect fill="#F1F1F1" height="2" style="stroke:#181818;stroke-width:0.5;" width="4" x="133.8174" y="154"/><rect fill="#F1F1F1" height="2" style="stroke:#181818;stroke-width:0.5;" width="4" x="133.8174" y="158"/><text fill="#000000" font-family="sans-serif" font-size="14" lengthAdjust="spacing" textLength="93.3174" x="37.5" y="179.9951">AddMedia.jsx</text></g><!--entity MediaPlayer.jsx--><g id="elem_MediaPlayer.jsx"><rect fill="#F1F1F1" height="46.2969" rx="2.5" ry="2.5" style="stroke:#181818;stroke-width:0.5;" width="149.5322" x="191" y="147"/><rect fill="#F1F1F1" height="10" style="stroke:#181818;stroke-width:0.5;" width="15" x="320.5322" y="152"/><rect fill="#F1F1F1" height="2" style="stroke:#181818;stroke-width:0.5;" width="4" x="318.5322" y="154"/><rect fill="#F1F1F1" height="2" style="stroke:#181818;stroke-width:0.5;" width="4" x="318.5322" y="158"/><text fill="#000000" font-family="sans-serif" font-size="14" lengthAdjust="spacing" textLength="109.5322" x="206" y="179.9951">MediaPlayer.jsx</text></g><!--entity idbNative.js--><g id="elem_idbNative.js"><rect fill="#F1F1F1" height="46.2969" rx="2.5" ry="2.5" style="stroke:#181818;stroke-width:0.5;" width="122.626" x="27.5" y="253"/><rect fill="#F1F1F1" height="10" style="stroke:#181818;stroke-width:0.5;" width="15" x="130.126" y="258"/><rect fill="#F1F1F1" height="2" style="stroke:#181818;stroke-width:0.5;" width="4" x="128.126" y="260"/><rect fill="#F1F1F1" height="2" style="stroke:#181818;stroke-width:0.5;" width="4" x="128.126" y="264"/><text fill="#000000" font-family="sans-serif" font-size="14" lengthAdjust="spacing" textLength="82.626" x="42.5" y="285.9951">idbNative.js</text></g><!--link AddMedia.jsx to idbNative.js--><g id="link_AddMedia.jsx_idbNative.js"><path d="M89,193.06 C89,210.7 89,229.34 89,246.98 " fill="transparent" id="AddMedia.jsx-to-idbNative.js" style="stroke:#181818;stroke-width:1;"/><polygon fill="#181818" points="89,252.98,93,243.98,89,247.98,85,243.98,89,252.98" style="stroke:#181818;stroke-width:1;"/></g><!--link MusicPlayer.jsx to AddMedia.jsx--><g id="link_MusicPlayer.jsx_AddMedia.jsx"><path d="M161.49,87.06 C145.88,104.7 128.0662,124.8467 112.4562,142.4867 " fill="transparent" id="MusicPlayer.jsx-to-AddMedia.jsx" style="stroke:#181818;stroke-width:1;"/><polygon fill="#181818" points="108.48,146.98,117.4399,142.8909,111.7935,143.2356,111.4488,137.5892,108.48,146.98" style="stroke:#181818;stroke-width:1;"/></g><!--link MusicPlayer.jsx to MediaPlayer.jsx--><g id="link_MusicPlayer.jsx_MediaPlayer.jsx"><path d="M199.03,87.06 C213.45,104.7 229.7826,124.6946 244.2026,142.3346 " fill="transparent" id="MusicPlayer.jsx-to-MediaPlayer.jsx" style="stroke:#181818;stroke-width:1;"/><polygon fill="#181818" points="248,146.98,245.4008,137.4803,244.8355,143.1088,239.2069,142.5435,248,146.98" style="stroke:#181818;stroke-width:1;"/></g><!--SRC=[AqXCpavCJrLGYahDKmZ8IQnCBL9IgEPIK8ZsBItEJ8Q8w6KLLyI2n1nJKdnJKp8JuG9W7fgYp9GalyIIpB9Ke4WiLoqN5wes1LrTEtH569P15A5QXqCHkXC0]--></g></svg>