<svg xmlns="http://www.w3.org/2000/svg" xmlns:xlink="http://www.w3.org/1999/xlink" contentStyleType="text/css" data-diagram-type="DESCRIPTION" height="230px" preserveAspectRatio="none" style="width:202px;height:230px;background:#FFFFFF;" version="1.1" viewBox="0 0 202 230" width="202px" zoomAndPan="magnify"><defs/><g><!--cluster User Device--><g id="cluster_User Device"><polygon fill="transparent" points="16,16,26,6,185,6,185,203,175,213,16,213,16,16" style="stroke:#181818;stroke-width:1;"/><line style="stroke:#181818;stroke-width:1;" x1="175" x2="185" y1="16" y2="6"/><line style="stroke:#181818;stroke-width:1;" x1="16" x2="175" y1="16" y2="16"/><line style="stroke:#181818;stroke-width:1;" x1="175" x2="175" y1="16" y2="213"/><text fill="#000000" font-family="sans-serif" font-size="14" font-weight="bold" lengthAdjust="spacing" textLength="93.8096" x="49.5952" y="31.9951">User Device</text></g><!--entity Web Browser--><g id="elem_Web Browser"><rect fill="#F1F1F1" height="46.2969" rx="2.5" ry="2.5" style="stroke:#181818;stroke-width:0.5;" width="132.832" x="33.5" y="46"/><rect fill="#F1F1F1" height="10" style="stroke:#181818;stroke-width:0.5;" width="15" x="146.332" y="51"/><rect fill="#F1F1F1" height="2" style="stroke:#181818;stroke-width:0.5;" width="4" x="144.332" y="53"/><rect fill="#F1F1F1" height="2" style="stroke:#181818;stroke-width:0.5;" width="4" x="144.332" y="57"/><text fill="#000000" font-family="sans-serif" font-size="14" lengthAdjust="spacing" textLength="92.832" x="48.5" y="78.9951">Web Browser</text></g><!--entity IndexedDB--><g id="elem_IndexedDB"><path d="M51.5,162 C51.5,152 99.8359,152 99.8359,152 C99.8359,152 148.1719,152 148.1719,162 L148.1719,187.2969 C148.1719,197.2969 99.8359,197.2969 99.8359,197.2969 C99.8359,197.2969 51.5,197.2969 51.5,187.2969 L51.5,162 " fill="#F1F1F1" style="stroke:#181818;stroke-width:0.5;"/><path d="M51.5,162 C51.5,172 99.8359,172 99.8359,172 C99.8359,172 148.1719,172 148.1719,162 " fill="transparent" style="stroke:#181818;stroke-width:0.5;"/><text fill="#000000" font-family="sans-serif" font-size="14" lengthAdjust="spacing" textLength="76.6719" x="61.5" y="188.9951">IndexedDB</text></g><!--link Web Browser to IndexedDB--><g id="link_Web Browser_IndexedDB"><path d="M100,92.2 C100,109.79 100,128.21 100,145.69 " fill="transparent" id="Web Browser-to-IndexedDB" style="stroke:#181818;stroke-width:1;"/><polygon fill="#181818" points="100,151.69,104,142.69,100,146.69,96,142.69,100,151.69" style="stroke:#181818;stroke-width:1;"/></g><!--SRC=[oyjFILLG2YrEBL9mIItBJ4vLKgZcKb18piyjoCzBpIjHK0fFJL9mAiel1ofH0iga99Oa9YKM0pLvvgMaLgIck3WfSTLoSQ6eKz3LjKDM0000]--></g></svg>