<svg xmlns="http://www.w3.org/2000/svg" xmlns:xlink="http://www.w3.org/1999/xlink" contentStyleType="text/css" data-diagram-type="CLASS" height="134px" preserveAspectRatio="none" style="width:154px;height:134px;background:#FFFFFF;" version="1.1" viewBox="0 0 154 134" width="154px" zoomAndPan="magnify"><defs/><g><!--class PlaylistItem--><g id="elem_PlaylistItem"><rect codeLine="1" fill="#F1F1F1" height="113.1875" id="PlaylistItem" rx="2.5" ry="2.5" style="stroke:#181818;stroke-width:0.5;" width="133.502" x="7" y="7"/><ellipse cx="30.9433" cy="23" fill="#ADD1B2" rx="11" ry="11" style="stroke:#181818;stroke-width:1;"/><path d="M35.0527,29 L27.3339,29 L27.3339,16.6094 L35.0527,16.6094 L35.0527,18.7656 L29.7871,18.7656 L29.7871,21.4375 L34.5527,21.4375 L34.5527,23.5938 L29.7871,23.5938 L29.7871,26.8438 L35.0527,26.8438 L35.0527,29 Z " fill="#000000"/><text fill="#000000" font-family="sans-serif" font-size="14" lengthAdjust="spacing" textLength="81.6279" x="46.9307" y="27.8467">PlaylistItem</text><line style="stroke:#181818;stroke-width:0.5;" x1="8" x2="139.502" y1="39" y2="39"/><ellipse cx="18" cy="52.6484" fill="#000000" rx="3" ry="3" style="stroke:#000000;stroke-width:1;"/><text fill="#000000" font-family="sans-serif" font-size="14" lengthAdjust="spacing" textLength="93.5088" x="27" y="55.9951">name : string</text><ellipse cx="18" cy="68.9453" fill="#000000" rx="3" ry="3" style="stroke:#000000;stroke-width:1;"/><text fill="#000000" font-family="sans-serif" font-size="14" lengthAdjust="spacing" textLength="85.0801" x="27" y="72.292">type : string</text><ellipse cx="18" cy="85.2422" fill="#000000" rx="3" ry="3" style="stroke:#000000;stroke-width:1;"/><text fill="#000000" font-family="sans-serif" font-size="14" lengthAdjust="spacing" textLength="107.502" x="27" y="88.5889">blobData : blob</text><ellipse cx="18" cy="101.5391" fill="#000000" rx="3" ry="3" style="stroke:#000000;stroke-width:1;"/><text fill="#000000" font-family="sans-serif" font-size="14" lengthAdjust="spacing" textLength="72.3242" x="27" y="104.8857">url : string</text><line style="stroke:#181818;stroke-width:0.5;" x1="8" x2="139.502" y1="112.1875" y2="112.1875"/></g><!--SRC=[IyqhoIofL50Ao4cipCaiBl4iISrLKgZcKb3GKiXBp4rLi58eBYdAp4i7YvHK5g299ENa9xaabYG2HK5Ci5XfKGv2KIq0]--></g></svg>