<svg xmlns="http://www.w3.org/2000/svg" xmlns:xlink="http://www.w3.org/1999/xlink" contentStyleType="text/css" data-diagram-type="ACTIVITY" height="194px" preserveAspectRatio="none" style="width:423px;height:194px;background:#FFFFFF;" version="1.1" viewBox="0 0 423 194" width="423px" zoomAndPan="magnify"><defs/><g><rect fill="#F1F1F1" height="33.9688" rx="12.5" ry="12.5" style="stroke:#181818;stroke-width:0.5;" width="55.4375" x="139" y="7"/><text fill="#000000" font-family="sans-serif" font-size="12" lengthAdjust="spacing" textLength="35.4375" x="149" y="28.1387">Home</text><rect fill="#F1F1F1" height="33.9688" rx="12.5" ry="12.5" style="stroke:#181818;stroke-width:0.5;" width="99.6816" x="14.5" y="81"/><text fill="#000000" font-family="sans-serif" font-size="12" lengthAdjust="spacing" textLength="79.6816" x="24.5" y="102.1387">Import Media</text><rect fill="#F1F1F1" height="33.9688" rx="12.5" ry="12.5" style="stroke:#181818;stroke-width:0.5;" width="62.6504" x="135" y="81"/><text fill="#000000" font-family="sans-serif" font-size="12" lengthAdjust="spacing" textLength="42.6504" x="145" y="102.1387">Playlist</text><rect fill="#F1F1F1" height="33.9688" rx="12.5" ry="12.5" style="stroke:#181818;stroke-width:0.5;" width="84.8809" x="7" y="155"/><text fill="#000000" font-family="sans-serif" font-size="12" lengthAdjust="spacing" textLength="64.8809" x="17" y="176.1387">Play Media</text><rect fill="#F1F1F1" height="33.9688" rx="12.5" ry="12.5" style="stroke:#181818;stroke-width:0.5;" width="109.0918" x="112" y="155"/><text fill="#000000" font-family="sans-serif" font-size="12" lengthAdjust="spacing" textLength="89.0918" x="122" y="176.1387">Remove Media</text><rect fill="#F1F1F1" height="33.9688" rx="12.5" ry="12.5" style="stroke:#181818;stroke-width:0.5;" width="69.2188" x="240" y="81"/><text fill="#000000" font-family="sans-serif" font-size="12" lengthAdjust="spacing" textLength="49.2188" x="250" y="102.1387">Settings</text><rect fill="#F1F1F1" height="33.9688" rx="12.5" ry="12.5" style="stroke:#181818;stroke-width:0.5;" width="65.5625" x="241.5" y="155"/><text fill="#000000" font-family="sans-serif" font-size="12" lengthAdjust="spacing" textLength="45.5625" x="251.5" y="176.1387">Volume</text><rect fill="#F1F1F1" height="33.9688" rx="12.5" ry="12.5" style="stroke:#181818;stroke-width:0.5;" width="89.9668" x="327.5" y="155"/><text fill="#000000" font-family="sans-serif" font-size="12" lengthAdjust="spacing" textLength="69.9668" x="337.5" y="176.1387">Screen Size</text><!--link Home to Import Media--><g id="link_Home_Import Media"><path d="M143.61,41.16 C126.81,53.02 109.002,65.5902 92.212,77.4402 " fill="transparent" id="Home-to-Import Media" style="stroke:#181818;stroke-width:1;"/><polygon fill="#181818" points="87.31,80.9,96.9696,78.9784,91.395,78.0169,92.3566,72.4423,87.31,80.9" style="stroke:#181818;stroke-width:1;"/></g><!--link Home to Playlist--><g id="link_Home_Playlist"><path d="M166.5,41.34 C166.5,53.12 166.5,62.96 166.5,74.73 " fill="transparent" id="Home-to-Playlist" style="stroke:#181818;stroke-width:1;"/><polygon fill="#181818" points="166.5,80.73,170.5,71.73,166.5,75.73,162.5,71.73,166.5,80.73" style="stroke:#181818;stroke-width:1;"/></g><!--link Playlist to Play Media--><g id="link_Playlist_Play Media"><path d="M140.24,115.16 C120.97,127.02 100.0295,139.9047 80.7795,151.7547 " fill="transparent" id="Playlist-to-Play Media" style="stroke:#181818;stroke-width:1;"/><polygon fill="#181818" points="75.67,154.9,85.4311,153.5883,79.9279,152.2789,81.2374,146.7757,75.67,154.9" style="stroke:#181818;stroke-width:1;"/></g><!--link Playlist to Remove Media--><g id="link_Playlist_Remove Media"><path d="M166.5,115.34 C166.5,127.12 166.5,136.96 166.5,148.73 " fill="transparent" id="Playlist-to-Remove Media" style="stroke:#181818;stroke-width:1;"/><polygon fill="#181818" points="166.5,154.73,170.5,145.73,166.5,149.73,162.5,145.73,166.5,154.73" style="stroke:#181818;stroke-width:1;"/></g><!--link Home to Settings--><g id="link_Home_Settings"><path d="M190.74,41.16 C208.52,53.02 227.589,65.7199 245.349,77.5699 " fill="transparent" id="Home-to-Settings" style="stroke:#181818;stroke-width:1;"/><polygon fill="#181818" points="250.34,80.9,245.0736,72.5774,246.1808,78.1249,240.6334,79.2321,250.34,80.9" style="stroke:#181818;stroke-width:1;"/></g><!--link Settings to Volume--><g id="link_Settings_Volume"><path d="M274.5,115.34 C274.5,127.12 274.5,136.96 274.5,148.73 " fill="transparent" id="Settings-to-Volume" style="stroke:#181818;stroke-width:1;"/><polygon fill="#181818" points="274.5,154.73,278.5,145.73,274.5,149.73,270.5,145.73,274.5,154.73" style="stroke:#181818;stroke-width:1;"/></g><!--link Settings to Screen Size--><g id="link_Settings_Screen Size"><path d="M296.74,115.34 C312.89,127.2 329.8044,139.6279 345.8544,151.4179 " fill="transparent" id="Settings-to-Screen Size" style="stroke:#181818;stroke-width:1;"/><polygon fill="#181818" points="350.69,154.97,345.8047,146.4181,346.6604,152.0099,341.0686,152.8656,350.69,154.97" style="stroke:#181818;stroke-width:1;"/></g><!--SRC=[NSon2eCm58NXFKznjqw-GYS77GHfm5tqg1ToavBS2EtJ2w8Lk_ry7Cw3IapiGRg0gY0WWS-KDEP1SuJPhIYULCixHAK68_UNjgx_E4vgplZfiRpv2n9M_7zOgBAVapbZrowuBBYR7IBWoV8N6m00]--></g></svg>