<svg xmlns="http://www.w3.org/2000/svg" xmlns:xlink="http://www.w3.org/1999/xlink" contentStyleType="text/css" data-diagram-type="SEQUENCE" height="356px" preserveAspectRatio="none" style="width:667px;height:356px;background:#FFFFFF;" version="1.1" viewBox="0 0 667 356" width="667px" zoomAndPan="magnify"><defs/><g><g><title>User</title><rect fill="transparent" height="194.7969" width="8" x="19.9551" y="81.2969"/><line style="stroke:#181818;stroke-width:0.5;stroke-dasharray:5.0,5.0;" x1="23" x2="23" y1="81.2969" y2="276.0938"/></g><g><title>AddMedia.jsx</title><rect fill="transparent" height="194.7969" width="8" x="117.6641" y="81.2969"/><line style="stroke:#181818;stroke-width:0.5;stroke-dasharray:5.0,5.0;" x1="121.0054" x2="121.0054" y1="81.2969" y2="276.0938"/></g><g><title>IndexedDB (idbNative.js)</title><rect fill="transparent" height="194.7969" width="8" x="275.6587" y="81.2969"/><line style="stroke:#181818;stroke-width:0.5;stroke-dasharray:5.0,5.0;" x1="279.3228" x2="279.3228" y1="81.2969" y2="276.0938"/></g><g><title>MusicPlayer.jsx</title><rect fill="transparent" height="194.7969" width="8" x="440.6533" y="81.2969"/><line style="stroke:#181818;stroke-width:0.5;stroke-dasharray:5.0,5.0;" x1="443.9946" x2="443.9946" y1="81.2969" y2="276.0938"/></g><g><title>MediaPlayer.jsx</title><rect fill="transparent" height="194.7969" width="8" x="595.4277" y="81.2969"/><line style="stroke:#181818;stroke-width:0.5;stroke-dasharray:5.0,5.0;" x1="598.6616" x2="598.6616" y1="81.2969" y2="276.0938"/></g><text fill="#000000" font-family="sans-serif" font-size="14" lengthAdjust="spacing" textLength="31.9102" x="5" y="77.9951">User</text><ellipse cx="23.9551" cy="13.5" fill="#E2E2F0" rx="8" ry="8" style="stroke:#181818;stroke-width:0.5;"/><path d="M23.9551,21.5 L23.9551,48.5 M10.9551,29.5 L36.9551,29.5 M23.9551,48.5 L10.9551,63.5 M23.9551,48.5 L36.9551,63.5 " fill="transparent" style="stroke:#181818;stroke-width:0.5;"/><text fill="#000000" font-family="sans-serif" font-size="14" lengthAdjust="spacing" textLength="31.9102" x="5" y="288.0889">User</text><ellipse cx="23.9551" cy="299.8906" fill="#E2E2F0" rx="8" ry="8" style="stroke:#181818;stroke-width:0.5;"/><path d="M23.9551,307.8906 L23.9551,334.8906 M10.9551,315.8906 L36.9551,315.8906 M23.9551,334.8906 L10.9551,349.8906 M23.9551,334.8906 L36.9551,349.8906 " fill="transparent" style="stroke:#181818;stroke-width:0.5;"/><rect fill="#E2E2F0" height="30.2969" rx="2.5" ry="2.5" style="stroke:#181818;stroke-width:0.5;" width="107.3174" x="68.0054" y="50"/><text fill="#000000" font-family="sans-serif" font-size="14" lengthAdjust="spacing" textLength="93.3174" x="75.0054" y="69.9951">AddMedia.jsx</text><rect fill="#E2E2F0" height="30.2969" rx="2.5" ry="2.5" style="stroke:#181818;stroke-width:0.5;" width="107.3174" x="68.0054" y="275.0938"/><text fill="#000000" font-family="sans-serif" font-size="14" lengthAdjust="spacing" textLength="93.3174" x="75.0054" y="295.0889">AddMedia.jsx</text><rect fill="#E2E2F0" height="30.2969" rx="2.5" ry="2.5" style="stroke:#181818;stroke-width:0.5;" width="188.6719" x="185.3228" y="50"/><text fill="#000000" font-family="sans-serif" font-size="14" lengthAdjust="spacing" textLength="174.6719" x="192.3228" y="69.9951">IndexedDB (idbNative.js)</text><rect fill="#E2E2F0" height="30.2969" rx="2.5" ry="2.5" style="stroke:#181818;stroke-width:0.5;" width="188.6719" x="185.3228" y="275.0938"/><text fill="#000000" font-family="sans-serif" font-size="14" lengthAdjust="spacing" textLength="174.6719" x="192.3228" y="295.0889">IndexedDB (idbNative.js)</text><rect fill="#E2E2F0" height="30.2969" rx="2.5" ry="2.5" style="stroke:#181818;stroke-width:0.5;" width="121.3174" x="383.9946" y="50"/><text fill="#000000" font-family="sans-serif" font-size="14" lengthAdjust="spacing" textLength="107.3174" x="390.9946" y="69.9951">MusicPlayer.jsx</text><rect fill="#E2E2F0" height="30.2969" rx="2.5" ry="2.5" style="stroke:#181818;stroke-width:0.5;" width="121.3174" x="383.9946" y="275.0938"/><text fill="#000000" font-family="sans-serif" font-size="14" lengthAdjust="spacing" textLength="107.3174" x="390.9946" y="295.0889">MusicPlayer.jsx</text><rect fill="#E2E2F0" height="30.2969" rx="2.5" ry="2.5" style="stroke:#181818;stroke-width:0.5;" width="123.5322" x="537.6616" y="50"/><text fill="#000000" font-family="sans-serif" font-size="14" lengthAdjust="spacing" textLength="109.5322" x="544.6616" y="69.9951">MediaPlayer.jsx</text><rect fill="#E2E2F0" height="30.2969" rx="2.5" ry="2.5" style="stroke:#181818;stroke-width:0.5;" width="123.5322" x="537.6616" y="275.0938"/><text fill="#000000" font-family="sans-serif" font-size="14" lengthAdjust="spacing" textLength="109.5322" x="544.6616" y="295.0889">MediaPlayer.jsx</text><polygon fill="#181818" points="109.6641,108.4297,119.6641,112.4297,109.6641,116.4297,113.6641,112.4297" style="stroke:#181818;stroke-width:1;"/><line style="stroke:#181818;stroke-width:1;" x1="23.9551" x2="115.6641" y1="112.4297" y2="112.4297"/><text fill="#000000" font-family="sans-serif" font-size="13" lengthAdjust="spacing" textLength="73.709" x="30.9551" y="107.3638">Select Files</text><polygon fill="#181818" points="267.6587,137.5625,277.6587,141.5625,267.6587,145.5625,271.6587,141.5625" style="stroke:#181818;stroke-width:1;"/><line style="stroke:#181818;stroke-width:1;" x1="121.6641" x2="273.6587" y1="141.5625" y2="141.5625"/><text fill="#000000" font-family="sans-serif" font-size="13" lengthAdjust="spacing" textLength="65.5142" x="128.6641" y="136.4966">Save Files</text><polygon fill="#181818" points="132.6641,166.6953,122.6641,170.6953,132.6641,174.6953,128.6641,170.6953" style="stroke:#181818;stroke-width:1;"/><line style="stroke:#181818;stroke-width:1;stroke-dasharray:2.0,2.0;" x1="126.6641" x2="278.6587" y1="170.6953" y2="170.6953"/><text fill="#000000" font-family="sans-serif" font-size="13" lengthAdjust="spacing" textLength="73.0298" x="138.6641" y="165.6294">Blob Saved</text><polygon fill="#181818" points="432.6533,195.8281,442.6533,199.8281,432.6533,203.8281,436.6533,199.8281" style="stroke:#181818;stroke-width:1;"/><line style="stroke:#181818;stroke-width:1;" x1="121.6641" x2="438.6533" y1="199.8281" y2="199.8281"/><text fill="#000000" font-family="sans-serif" font-size="13" lengthAdjust="spacing" textLength="97.4175" x="128.6641" y="194.7622">Update Playlist</text><polygon fill="#181818" points="432.6533,224.9609,442.6533,228.9609,432.6533,232.9609,436.6533,228.9609" style="stroke:#181818;stroke-width:1;"/><line style="stroke:#181818;stroke-width:1;" x1="23.9551" x2="438.6533" y1="228.9609" y2="228.9609"/><text fill="#000000" font-family="sans-serif" font-size="13" lengthAdjust="spacing" textLength="115.3623" x="30.9551" y="223.895">Select File to Play</text><polygon fill="#181818" points="587.4277,254.0938,597.4277,258.0938,587.4277,262.0938,591.4277,258.0938" style="stroke:#181818;stroke-width:1;"/><line style="stroke:#181818;stroke-width:1;" x1="444.6533" x2="593.4277" y1="258.0938" y2="258.0938"/><text fill="#000000" font-family="sans-serif" font-size="13" lengthAdjust="spacing" textLength="130.7744" x="451.6533" y="253.0278">Play Selected Media</text><!--SRC=[NOz13i8W44Ntd6BIbIxg0LoOs3GcBZGcfWUOChF0aBO1REhjXLefTCVyUGy-A5rleB5in836AQa6x1mKPw8RayB3oqu5e8L_a6FNZdXYgYlOAMhlwDJ8NjdFIbtbyErjbNne_B29roRP1WwFRU4r4o9qXl8KYy4HdgnPEhWepLR4t3E-dz_YoClEpsMkLhflPu8oCQddeMOWT0nXrigwM26daXRW-faMAH64zIDU28V5OlhjlW00]--></g></svg>