<svg xmlns="http://www.w3.org/2000/svg" xmlns:xlink="http://www.w3.org/1999/xlink" contentStyleType="text/css" data-diagram-type="DESCRIPTION" height="200px" preserveAspectRatio="none" style="width:804px;height:200px;background:#FFFFFF;" version="1.1" viewBox="0 0 804 200" width="804px" zoomAndPan="magnify"><defs/><g><!--entity User--><g id="elem_User"><ellipse cx="360.4551" cy="14" fill="#F1F1F1" rx="8" ry="8" style="stroke:#181818;stroke-width:0.5;"/><path d="M360.4551,22 L360.4551,49 M347.4551,30 L373.4551,30 M360.4551,49 L347.4551,64 M360.4551,49 L373.4551,64 " fill="transparent" style="stroke:#181818;stroke-width:0.5;"/><text fill="#000000" font-family="sans-serif" font-size="14" lengthAdjust="spacing" textLength="31.9102" x="344.5" y="78.4951">User</text></g><g id="elem_Import Media Files"><ellipse cx="90.4917" cy="167.7983" fill="#F1F1F1" rx="84.4917" ry="19.2983" style="stroke:#181818;stroke-width:0.5;"/><text fill="#000000" font-family="sans-serif" font-size="14" lengthAdjust="spacing" textLength="129.1514" x="25.8159" y="170.6797">Import Media Files</text></g><g id="elem_Play Media"><ellipse cx="274.4569" cy="168.1914" fill="#F1F1F1" rx="63.9569" ry="15.1914" style="stroke:#181818;stroke-width:0.5;"/><text fill="#000000" font-family="sans-serif" font-size="14" lengthAdjust="spacing" textLength="75.6943" x="233.6097" y="171.9389">Play Media</text></g><g id="elem_Remove Media"><ellipse cx="447.6968" cy="168.2394" fill="#F1F1F1" rx="74.1968" ry="17.2394" style="stroke:#181818;stroke-width:0.5;"/><text fill="#000000" font-family="sans-serif" font-size="14" lengthAdjust="spacing" textLength="103.9404" x="392.7265" y="171.9869">Remove Media</text></g><g id="elem_Control Volume &amp; Screen Size"><ellipse cx="677.7249" cy="168.145" fill="#F1F1F1" rx="121.2249" ry="26.645" style="stroke:#181818;stroke-width:0.5;"/><text fill="#000000" font-family="sans-serif" font-size="14" lengthAdjust="spacing" textLength="209.9658" x="572.742" y="170.9917">Control Volume &amp; Screen Size</text></g><!--link User to Import Media Files--><g id="link_User_Import Media Files"><path d="M344.42,51.8 C302.07,71.01 192.1237,120.8905 132.5837,147.9105 " fill="transparent" id="User-to-Import Media Files" style="stroke:#181818;stroke-width:1;"/><polygon fill="#181818" points="127.12,150.39,136.9686,150.3132,131.6731,148.3238,133.6626,143.0283,127.12,150.39" style="stroke:#181818;stroke-width:1;"/></g><!--link User to Play Media--><g id="link_User_Play Media"><path d="M344.32,67.54 C326.71,92.63 302.5482,127.0498 287.8782,147.9398 " fill="transparent" id="User-to-Play Media" style="stroke:#181818;stroke-width:1;"/><polygon fill="#181818" points="284.43,152.85,292.8757,147.7835,287.3035,148.7582,286.3288,143.1859,284.43,152.85" style="stroke:#181818;stroke-width:1;"/></g><!--link User to Remove Media--><g id="link_User_Remove Media"><path d="M376.66,67.25 C393.96,91.61 417.4749,124.7288 432.6649,146.1088 " fill="transparent" id="User-to-Remove Media" style="stroke:#181818;stroke-width:1;"/><polygon fill="#181818" points="436.14,151,434.1882,141.3465,433.2441,146.924,427.6666,145.9799,436.14,151" style="stroke:#181818;stroke-width:1;"/></g><!--link User to Control Volume & Screen Size--><g id="link_User_Control Volume &amp; Screen Size"><path d="M376.66,50.74 C420.88,67.83 539.9434,113.8472 614.1834,142.5372 " fill="transparent" id="User-to-Control Volume &amp; Screen Size" style="stroke:#181818;stroke-width:1;"/><polygon fill="#181818" points="619.78,144.7,612.8269,137.7247,615.1161,142.8977,609.9432,145.1869,619.78,144.7" style="stroke:#181818;stroke-width:1;"/></g><!--SRC=[IqmkoIzI22rEBUBY0f4Akhfs2XgUkGNvHIKAlgafcOaARfavgSMQIB81EOcL43baqQ3KtFooL4nnv_oyagBy78Mm_9pIt5G5DONWvABKr3o5uCogL4q0]--></g></svg>